<?xml version="1.0" standalone="no"?>
<!DOCTYPE svg PUBLIC "-//W3C//DTD SVG 20010904//EN"
 "http://www.w3.org/TR/2001/REC-SVG-20010904/DTD/svg10.dtd">
<svg version="1.0" xmlns="http://www.w3.org/2000/svg"
 width="700.000000pt" height="700.000000pt" viewBox="0 0 700.000000 700.000000"
 preserveAspectRatio="xMidYMid meet">
<metadata>
Created by potrace 1.14, written by Peter Selinger 2001-2017
</metadata>
<g transform="translate(0.000000,700.000000) scale(0.100000,-0.100000)"
fill="#000000" stroke="none">
<path d="M3349 5096 c-2 -2 -31 -7 -64 -10 -33 -4 -106 -18 -162 -31 -499
-119 -923 -487 -1112 -968 -36 -91 -70 -205 -77 -261 -3 -22 -7 -43 -10 -48
-18 -29 -26 -378 -11 -493 51 -384 250 -747 547 -1000 239 -203 521 -329 835
-373 28 -4 129 -7 225 -7 143 1 195 5 285 24 210 43 397 119 561 226 48 31 93
62 100 68 7 7 27 23 46 37 115 85 305 311 381 455 18 33 35 62 38 65 10 8 95
228 112 290 40 143 52 243 52 430 0 211 -17 322 -76 503 -173 529 -641 950
-1179 1061 -41 8 -88 18 -105 21 -33 8 -379 17 -386 11z"/>
</g>
</svg>
